<mxfile host="app.diagrams.net" modified="2024-03-14T11:29:01.627Z" agent="Mozilla/5.0 (Macintosh; Intel Mac OS X 10.15; rv:123.0) Gecko/20100101 Firefox/123.0" version="24.0.6" etag="rfgUSDuHJF0tm25tllIM" type="github">
  <diagram name="Page-1" id="ny2S1cRTpyobOIf4XPng">
    <mxGraphModel>
      <root>
        <mxCell id="0" />
        <mxCell id="1" parent="0" />
      </root>
    </mxGraphModel>
  </diagram>
</mxfile>
